<svg aria-hidden="true" style="width:0;height:0;position:absolute;overflow:hidden" xmlns="http://www.w3.org/2000/svg"><defs><symbol id="icon-logo" viewBox="0 0 126 32"><path fill="#f6f6f6" style="fill:var(--color1,#f6f6f6)" d="m0 2.286 14.008 13.861 13.42 13.567V2.285H-.001z"/><path fill="#f6f6f6" style="fill:var(--color1,#f6f6f6)" d="m3.82 5.91 10.237 10.139 9.649 9.845H3.82V5.91z"/><path fill="#4f2ee8" style="fill:var(--color2,#4f2ee8)" d="M23.771 25.959 13.534 15.82 3.885 5.975h19.886v19.984z"/><path fill="#4f2ee8" style="fill:var(--color2,#4f2ee8)" d="m7.935 10.024 11.657 11.657H7.935V10.024z"/><path fill="#f6f6f6" style="fill:var(--color1,#f6f6f6)" d="m7.935 10.024 11.657 11.657V10.024H7.935z"/><path style="fill:var(--color3,#000)" d="M47.659 12.266c0-2.366-1.749-3.703-4.773-3.703h-6.315v14.709h6.665c3.045 0 4.999-1.461 4.999-4.299 0-2.201-1.317-3.333-2.859-3.6v-.041c1.214-.411 2.283-1.255 2.283-3.065zm-8.64 2.387v-4.011h3.929c1.461 0 2.263.72 2.263 2.016s-.658 1.995-2.407 1.995h-3.785zm0 1.83h4.299c1.543 0 2.469.843 2.469 2.345 0 1.378-.638 2.366-2.736 2.366h-4.032v-4.711zM54.516 23.581c-3.291 0-5.287-2.283-5.287-5.554s1.995-5.554 5.287-5.554c3.291 0 5.287 2.283 5.287 5.554s-1.995 5.554-5.287 5.554zm0-1.77c2.057 0 3.127-1.625 3.127-3.785 0-2.181-1.07-3.785-3.127-3.785s-3.127 1.605-3.127 3.785c0 2.16 1.07 3.785 3.127 3.785zM66.027 23.581c-3.291 0-5.287-2.283-5.287-5.554s1.995-5.554 5.287-5.554c3.291 0 5.287 2.283 5.287 5.554s-1.995 5.554-5.287 5.554zm0-1.77c2.057 0 3.127-1.625 3.127-3.785 0-2.181-1.07-3.785-3.127-3.785S62.9 15.846 62.9 18.026c0 2.16 1.07 3.785 3.127 3.785zM72.807 8.563v14.709h2.16v-3.806l1.461-1.378 3.312 5.184h2.592l-4.423-6.603L81.9 12.76h-2.654l-4.279 4.217V8.563h-2.16zM87.539 16.915c-1.522-.35-2.695-.432-2.695-1.502 0-.741.699-1.234 1.995-1.234 1.687 0 2.098.843 2.242 1.666h2.098c-.144-1.831-1.502-3.374-4.361-3.374-2.633 0-4.155 1.378-4.155 3.106 0 2.386 2.263 2.715 3.929 3.106 1.543.37 2.798.473 2.798 1.79 0 .658-.638 1.399-2.139 1.399-2.222 0-2.715-.967-2.818-2.098h-2.098c.103 2.222 1.563 3.806 4.958 3.806 2.551 0 4.279-1.255 4.279-3.271 0-2.51-2.098-2.942-4.032-3.394zM98.633 12.472c-1.769 0-2.859.823-3.415 1.646h-.041V8.564h-2.16v14.709h2.16v-6.398c0-1.563 1.131-2.571 2.715-2.571 1.502 0 2.098.905 2.098 2.325v6.645h2.181v-7.262c0-2.407-1.543-3.538-3.538-3.538zM108.796 21.811c-1.913 0-3.045-1.461-3.045-3.23h8.064c0-3.744-1.666-6.11-5.061-6.11-3.168 0-5.163 2.139-5.163 5.554 0 3.291 1.995 5.554 5.266 5.554 2.695 0 4.258-1.522 4.793-3.518h-2.16c-.185.638-.905 1.749-2.695 1.749zm-.042-7.632c1.749 0 2.901 1.173 2.901 2.798h-5.904c0-1.625 1.255-2.798 3.003-2.798zM115.337 8.563v14.709h2.181V8.563h-2.181zM124.573 10.333V8.564a7.6 7.6 0 0 0-1.44-.144c-1.728 0-2.674.782-2.674 3.003v1.337h-1.502v1.769h1.502v8.743h2.181v-8.743h1.934V12.76h-1.934v-1.152c0-1.193.535-1.337 1.934-1.275z"/></symbol><symbol id="icon-logo-foot" viewBox="0 0 126 32"><path fill="#f6f6f6" style="fill:var(--color1,#f6f6f6)" d="m0 2.286 14.008 13.861 13.42 13.567V2.285H-.001z"/><path fill="#f6f6f6" style="fill:var(--color1,#f6f6f6)" d="m3.82 5.91 10.237 10.139 9.649 9.845H3.82V5.91z"/><path fill="#4f2ee8" style="fill:var(--color2,#4f2ee8)" d="M23.771 25.959 13.534 15.82 3.885 5.975h19.886v19.984z"/><path fill="#4f2ee8" style="fill:var(--color2,#4f2ee8)" d="m7.935 10.024 11.657 11.657H7.935V10.024z"/><path fill="#f6f6f6" style="fill:var(--color1,#f6f6f6)" d="m7.935 10.024 11.657 11.657V10.024H7.935z"/><path fill="#f3f3f3" style="fill:var(--color3,#f3f3f3)" d="M47.659 12.266c0-2.366-1.749-3.703-4.773-3.703h-6.315v14.709h6.665c3.045 0 4.999-1.461 4.999-4.299 0-2.201-1.317-3.333-2.859-3.6v-.041c1.214-.411 2.283-1.255 2.283-3.065zm-8.64 2.387v-4.011h3.929c1.461 0 2.263.72 2.263 2.016s-.658 1.995-2.407 1.995h-3.785zm0 1.83h4.299c1.543 0 2.469.843 2.469 2.345 0 1.378-.638 2.366-2.736 2.366h-4.032v-4.711zM54.516 23.581c-3.291 0-5.287-2.283-5.287-5.554s1.995-5.554 5.287-5.554c3.291 0 5.287 2.283 5.287 5.554s-1.995 5.554-5.287 5.554zm0-1.77c2.057 0 3.127-1.625 3.127-3.785 0-2.181-1.07-3.785-3.127-3.785s-3.127 1.605-3.127 3.785c0 2.16 1.07 3.785 3.127 3.785zM66.027 23.581c-3.291 0-5.287-2.283-5.287-5.554s1.995-5.554 5.287-5.554c3.291 0 5.287 2.283 5.287 5.554s-1.995 5.554-5.287 5.554zm0-1.77c2.057 0 3.127-1.625 3.127-3.785 0-2.181-1.07-3.785-3.127-3.785S62.9 15.846 62.9 18.026c0 2.16 1.07 3.785 3.127 3.785zM72.807 8.563v14.709h2.16v-3.806l1.461-1.378 3.312 5.184h2.592l-4.423-6.603L81.9 12.76h-2.654l-4.279 4.217V8.563h-2.16zM87.539 16.915c-1.522-.35-2.695-.432-2.695-1.502 0-.741.699-1.234 1.995-1.234 1.687 0 2.098.843 2.242 1.666h2.098c-.144-1.831-1.502-3.374-4.361-3.374-2.633 0-4.155 1.378-4.155 3.106 0 2.386 2.263 2.715 3.929 3.106 1.543.37 2.798.473 2.798 1.79 0 .658-.638 1.399-2.139 1.399-2.222 0-2.715-.967-2.818-2.098h-2.098c.103 2.222 1.563 3.806 4.958 3.806 2.551 0 4.279-1.255 4.279-3.271 0-2.51-2.098-2.942-4.032-3.394zM98.633 12.472c-1.769 0-2.859.823-3.415 1.646h-.041V8.564h-2.16v14.709h2.16v-6.398c0-1.563 1.131-2.571 2.715-2.571 1.502 0 2.098.905 2.098 2.325v6.645h2.181v-7.262c0-2.407-1.543-3.538-3.538-3.538zM108.796 21.811c-1.913 0-3.045-1.461-3.045-3.23h8.064c0-3.744-1.666-6.11-5.061-6.11-3.168 0-5.163 2.139-5.163 5.554 0 3.291 1.995 5.554 5.266 5.554 2.695 0 4.258-1.522 4.793-3.518h-2.16c-.185.638-.905 1.749-2.695 1.749zm-.042-7.632c1.749 0 2.901 1.173 2.901 2.798h-5.904c0-1.625 1.255-2.798 3.003-2.798zM115.337 8.563v14.709h2.181V8.563h-2.181zM124.573 10.333V8.564a7.6 7.6 0 0 0-1.44-.144c-1.728 0-2.674.782-2.674 3.003v1.337h-1.502v1.769h1.502v8.743h2.181v-8.743h1.934V12.76h-1.934v-1.152c0-1.193.535-1.337 1.934-1.275z"/></symbol><symbol id="icon-user" viewBox="0 0 32 32"><path d="M5.333 29.333a10.662 10.662 0 0 1 18.208-7.543c2 2 3.124 4.714 3.124 7.543H5.332zm10.667-12c-4.42 0-8-3.58-8-8s3.58-8 8-8 8 3.58 8 8-3.58 8-8 8z"/></symbol><symbol id="icon-align-left" viewBox="0 0 32 32"><path stroke-linejoin="round" stroke-linecap="round" stroke-width="2.286" d="M22.667 13.333H4M28 8H4M28 18.667H4M22.667 24H4"/></symbol><symbol id="icon-arrow-right" viewBox="0 0 32 32"><path stroke-linejoin="round" stroke-linecap="round" stroke-width="4" d="M2.667 16h26.667m-.001 0-10-10m10 10-10 10"/></symbol><symbol id="icon-book" viewBox="0 0 32 32"><path d="M31.229 8.466a15.221 15.221 0 0 0-2.138-.91v17.947A14.622 14.622 0 0 0 24 24.578c-2.764 0-5.498.806-8 2.357V8.884c-2.356-1.387-5.076-2.208-8-2.208-2.604 0-5.062.656-7.229 1.79C.291 8.705 0 9.227 0 9.779V27.8c0 .865.684 1.477 1.455 1.477.233 0 .465-.06.698-.179 1.76-.94 3.738-1.537 5.847-1.537 3.011 0 5.789 1.223 8 2.984 2.211-1.76 4.989-2.984 8-2.984 2.109 0 4.087.597 5.847 1.552.233.119.465.179.698.179.756 0 1.455-.612 1.455-1.477V9.779c0-.552-.291-1.074-.771-1.313zM13.091 25.503c-1.658-.612-3.36-.925-5.091-.925s-3.433.313-5.091.925V10.719a12.672 12.672 0 0 1 10.182.015v14.769zM26.182 1.455l-7.273 7.459v14.173l7.273-6.713V1.456z"/></symbol><symbol id="icon-bookshelf" viewBox="0 0 32 32"><path d="M3.98 14.66c0-.849-.628-1.329-1.713-1.329H0v5.28h2.393c1.093 0 1.794-.524 1.794-1.543 0-.79-.473-1.196-1.026-1.292v-.015c.436-.148.82-.45.82-1.1zm-3.101.856v-1.44h1.41c.524 0 .812.258.812.724s-.236.716-.864.716H.878zm0 .658h1.543c.554 0 .886.303.886.842 0 .495-.229.849-.982.849H.879v-1.691zM6.442 18.721c-1.182 0-1.898-.82-1.898-1.994s.716-1.994 1.898-1.994 1.898.82 1.898 1.994-.716 1.994-1.898 1.994zm0-.635c.738 0 1.122-.583 1.122-1.359 0-.783-.384-1.359-1.122-1.359s-1.122.576-1.122 1.359c0 .775.384 1.359 1.122 1.359zM10.574 18.721c-1.182 0-1.898-.82-1.898-1.994s.716-1.994 1.898-1.994 1.898.82 1.898 1.994-.716 1.994-1.898 1.994zm0-.635c.738 0 1.122-.583 1.122-1.359 0-.783-.384-1.359-1.122-1.359s-1.122.576-1.122 1.359c0 .775.384 1.359 1.122 1.359zM13.008 13.33v5.28h.775v-1.366l.524-.495 1.189 1.861h.93l-1.588-2.37 1.433-1.403h-.953l-1.536 1.514v-3.02h-.775zM18.296 16.329c-.546-.126-.967-.155-.967-.539 0-.266.251-.443.716-.443.606 0 .753.303.805.598h.753c-.052-.657-.539-1.211-1.566-1.211-.945 0-1.492.495-1.492 1.115 0 .857.812.975 1.41 1.115.554.133 1.004.17 1.004.642 0 .236-.229.502-.768.502-.798 0-.975-.347-1.012-.753h-.753c.037.798.561 1.366 1.78 1.366.916 0 1.536-.45 1.536-1.174 0-.901-.753-1.056-1.447-1.218zM22.279 14.734c-.635 0-1.026.295-1.226.591h-.015v-1.994h-.775v5.28h.775v-2.297c0-.561.406-.923.975-.923.539 0 .753.325.753.834v2.385h.783v-2.607c0-.864-.554-1.27-1.27-1.27zM25.927 18.086c-.687 0-1.093-.524-1.093-1.159h2.895c0-1.344-.598-2.193-1.817-2.193-1.137 0-1.854.768-1.854 1.994 0 1.182.716 1.994 1.89 1.994.967 0 1.529-.546 1.721-1.263h-.775c-.066.229-.325.628-.967.628zm-.015-2.74c.628 0 1.041.421 1.041 1.004h-2.119c0-.583.45-1.004 1.078-1.004zM28.275 13.33v5.28h.783v-5.28h-.783zM31.59 13.966v-.635a2.682 2.682 0 0 0-.517-.052c-.62 0-.96.281-.96 1.078v.48h-.539v.635h.539v3.138h.783v-3.138h.694v-.635h-.694v-.414c0-.428.192-.48.694-.458z"/></symbol><symbol id="icon-gerb" viewBox="0 0 20 32"><path d="M9.859.172a4.829 4.829 0 0 0-.965 1.895c-.178.666-.171 1.443.04 4.383.174 2.419.201 2.913.221 4.033.013.715.007 1.287-.019 1.634-.143 1.96-.675 3.949-1.622 6.068-.232.521-.901 1.85-.957 1.903-.03.028-.186.005-.624-.093-.957-.215-1.346-.459-1.622-1.016-.125-.253-.128-.267-.128-.627 0-.352.006-.38.114-.602.16-.328.512-.677.841-.832.282-.134.586-.186.879-.151.11.013.204.021.208.017s-.17-1.386-.39-3.07a643.016 643.016 0 0 1-.466-3.637 8.986 8.986 0 0 0-.499-2.168 9.994 9.994 0 0 0-3.759-4.846c-.254-.172-1.044-.63-1.086-.63C.011 2.433 0 7.631 0 13.983v11.55h5.587l.076.325a8.618 8.618 0 0 0 2.101 3.925c.369.392.66.654 1.169 1.05.473.367.789.688.938.953.056.099.112.18.124.179s.089-.108.172-.237c.178-.28.48-.572.867-.842a7.486 7.486 0 0 0 1.14-.961c1.041-1.053 1.811-2.477 2.169-4.011l.077-.331 5.58-.017V2.432l-.17.087c-2.585 1.309-4.539 4.065-5.129 7.231-.077.418-.941 7.022-.92 7.042.007.007.104 0 .214-.017.829-.125 1.702.521 1.847 1.368.114.666-.349 1.397-1.055 1.665a8.53 8.53 0 0 1-.737.193c-.525.119-.57.124-.61.072-.081-.106-.904-1.792-1.101-2.257-.634-1.492-1.085-2.997-1.304-4.345-.143-.88-.179-1.379-.178-2.438.002-1.14.028-1.663.193-3.816.166-2.184.192-2.665.196-3.684.003-.769-.006-.962-.056-1.2a5.897 5.897 0 0 0-.418-1.223 6.375 6.375 0 0 0-.65-.988l-.111-.129-.152.179zM2.117 6.283a8.298 8.298 0 0 1 1.517 3.335c.059.286.733 5.62.733 5.801 0 .045-.085.121-.273.245-.638.422-1.225 1.148-1.396 1.728l-.042.141H1.7V5.79l.071.063c.039.035.194.229.346.43zm16.216 5.401v5.884l-.938-.018-.093-.24c-.255-.655-.727-1.225-1.363-1.646-.211-.139-.272-.197-.272-.257 0-.13.665-5.505.718-5.807.196-1.108.728-2.276 1.493-3.282.202-.265.418-.518.443-.518.007 0 .012 2.648.012 5.884zm-7.834 6.249c.201.492.705 1.527 1.028 2.11.15.271.273.498.273.504a.596.596 0 0 1-.154.051c-.406.102-.93.424-1.361.837l-.268.257-.25-.233c-.444-.413-.916-.711-1.342-.844-.105-.033-.192-.072-.192-.087 0-.014.112-.227.248-.472.593-1.07 1.059-2.1 1.405-3.101l.125-.362.172.495c.095.272.237.653.316.845zm-7.832 1.275c.001.023.05.162.109.309.334.823 1.106 1.543 1.991 1.857.1.036.36.107.576.158s.398.099.405.106c.006.006-.024.177-.066.379a9.55 9.55 0 0 0-.205 1.501l-.021.415H1.7v-4.766h.483c.364 0 .484.01.484.041zm15.666 2.342v2.383h-3.756l-.022-.405a11.712 11.712 0 0 0-.219-1.595 2.251 2.251 0 0 1-.054-.293 8.85 8.85 0 0 1 .455-.12c.558-.138.886-.274 1.269-.526.615-.404 1.147-1.079 1.329-1.686l.042-.141h.956v2.383zm-10.491.536c.705.248 1.325 1.054 1.325 1.721v.126H7.083l.022-.391c.024-.434.056-.648.181-1.196l.084-.37.165.03c.091.017.229.053.307.08zm4.927.364c.096.424.163.923.164 1.225v.258h-2.066v-.115c0-.779.739-1.628 1.566-1.797l.217-.044.026.086c.014.048.056.222.093.387zm-3.602 4.802v1.685l-.17-.193a8.098 8.098 0 0 1-1.188-1.803c-.173-.364-.474-1.198-.475-1.316-.001-.054.065-.058.916-.058h.917v1.685zm3.533-1.656c0 .083-.188.659-.32.985-.309.754-.846 1.614-1.357 2.169l-.154.167-.002-3.35h.916c.512 0 .917.013.917.029z"/></symbol><symbol id="icon-lock" viewBox="0 0 32 32"><path d="M25.334 9.333h-4V8a5.332 5.332 0 1 0-10.666 0v1.333h-4a1.335 1.335 0 0 0-1.334 1.334v14.667a4.003 4.003 0 0 0 4 4h13.333a4.003 4.003 0 0 0 4-4V10.667a1.335 1.335 0 0 0-1.334-1.334zM13.334 8a2.668 2.668 0 0 1 5.334 0v1.333h-5.333V8zM24 25.333a1.335 1.335 0 0 1-1.334 1.334H9.333a1.335 1.335 0 0 1-1.334-1.334V12h2.667v1.333a1.335 1.335 0 0 0 2.277.943c.25-.251.39-.589.39-.943V12h5.333v1.333a1.335 1.335 0 0 0 2.277.943c.25-.251.391-.589.391-.943V12h2.667v13.333z"/></symbol><symbol id="icon-mail" viewBox="0 0 32 32"><path stroke-linejoin="round" stroke-linecap="round" stroke-width="2.286" d="m28.666 24-8.857-8m-7.619 0-8.857 8M2.667 9.333l10.887 7.621c.882.617 1.322.926 1.802 1.045.423.106.866.106 1.29 0 .479-.12.92-.428 1.802-1.045l10.887-7.621M9.067 26.667h13.867c2.24 0 3.36 0 4.216-.436a3.996 3.996 0 0 0 1.748-1.748c.436-.856.436-1.976.436-4.216v-8.533c0-2.24 0-3.36-.436-4.216A3.991 3.991 0 0 0 27.15 5.77c-.856-.436-1.976-.436-4.216-.436H9.067c-2.24 0-3.36 0-4.216.436a3.991 3.991 0 0 0-1.748 1.748c-.436.856-.436 1.976-.436 4.216v8.533c0 2.24 0 3.36.436 4.216a3.996 3.996 0 0 0 1.748 1.748c.856.436 1.976.436 4.216.436z"/></symbol><symbol id="icon-trash" viewBox="0 0 32 32"><path stroke-linejoin="round" stroke-linecap="round" stroke-width="2.909" d="M12 4h8M4 8h24m-2.667 0-.935 14.026c-.14 2.104-.21 3.157-.665 3.954a4 4 0 0 1-1.731 1.619c-.826.4-1.881.4-3.99.4h-4.025c-2.109 0-3.163 0-3.99-.4a4.005 4.005 0 0 1-1.731-1.619c-.455-.798-.525-1.85-.665-3.954L6.666 8m6.667 6v6.667M18.667 14v6.667"/></symbol><symbol id="icon-arrow-up" viewBox="0 0 56 32"><path d="M4.852 3.404c-.236.076-.652.296-.932.492a3.632 3.632 0 0 0-1.224 4.56c.284.616.716 1.06 9.276 9.616 8.472 8.464 9.04 9.008 9.992 9.632 1.864 1.22 3.788 1.788 6.036 1.788 2.636 0 4.896-.796 6.952-2.46.412-.332 4.656-4.524 9.436-9.316 8.188-8.208 8.704-8.744 8.956-9.316.24-.532.272-.72.276-1.5 0-.844-.02-.928-.352-1.604-.4-.808-.916-1.324-1.736-1.724-.472-.232-.624-.26-1.504-.26-1.688.004-.764-.788-10.968 9.38-10.244 10.212-9.388 9.476-11.06 9.476s-.816.736-11.06-9.476C6.844 2.632 7.66 3.34 6.112 3.296c-.536-.016-.992.024-1.26.108z"/></symbol><symbol id="icon-arrow-down" viewBox="0 0 56 32"><path d="M4.852 3.404c-.236.076-.652.296-.932.492a3.632 3.632 0 0 0-1.224 4.56c.284.616.716 1.06 9.276 9.616 8.472 8.464 9.04 9.008 9.992 9.632 1.864 1.22 3.788 1.788 6.036 1.788 2.636 0 4.896-.796 6.952-2.46.412-.332 4.656-4.524 9.436-9.316 8.188-8.208 8.704-8.744 8.956-9.316.24-.532.272-.72.276-1.5 0-.844-.02-.928-.352-1.604-.4-.808-.916-1.324-1.736-1.724-.472-.232-.624-.26-1.504-.26-1.688.004-.764-.788-10.968 9.38-10.244 10.212-9.388 9.476-11.06 9.476s-.816.736-11.06-9.476C6.844 2.632 7.66 3.34 6.112 3.296c-.536-.016-.992.024-1.26.108z"/></symbol><symbol id="icon-x-close" viewBox="0 0 32 32"><path stroke-linejoin="round" stroke-linecap="round" stroke-width="3.429" d="M24 8 8 24M8 8l16 16"/></symbol></defs></svg>