<svg aria-hidden="true" style="width:0;height:0;position:absolute;overflow:hidden" xmlns="http://www.w3.org/2000/svg"><defs><symbol id="icon-eye" viewBox="0 0 32 32"><path d="M15.982 25.91c-5.223 0-10.458-3.113-15.563-9.254a1.052 1.052 0 0 1 0-1.347c5.104-6.14 10.34-9.254 15.563-9.254s10.458 3.113 15.563 9.254c.325.391.325.957 0 1.347-5.104 6.14-10.34 9.254-15.563 9.254zM2.611 15.982c4.495 5.19 8.99 7.82 13.371 7.82s8.876-2.63 13.371-7.82c-4.495-5.19-8.99-7.82-13.371-7.82s-8.876 2.63-13.371 7.82z"/><path d="M15.982 21.953c-3.293 0-5.971-2.679-5.971-5.971s2.679-5.971 5.971-5.971 5.971 2.679 5.971 5.971-2.679 5.971-5.971 5.971zm0-9.835c-2.13 0-3.864 1.733-3.864 3.864s1.733 3.864 3.864 3.864 3.864-1.733 3.864-3.864-1.733-3.864-3.864-3.864z"/></symbol><symbol id="icon-eye-off" viewBox="0 0 32 32"><path d="M4.794 28.224a1.053 1.053 0 0 1-.745-1.799L26.425 4.049a1.053 1.053 0 1 1 1.49 1.49L5.539 27.915a1.048 1.048 0 0 1-.745.309z"/><path d="M9.061 23.956c-.177 0-.355-.045-.518-.136-2.711-1.529-5.444-3.94-8.124-7.164a1.052 1.052 0 0 1 0-1.347C7.982 6.21 15.721 3.8 23.421 8.144a1.052 1.052 0 0 1 .227 1.663L9.807 23.648a1.052 1.052 0 0 1-.745.309zm-6.45-7.974c2.098 2.422 4.206 4.3 6.284 5.597L21.133 9.341c-6.159-2.808-12.238-.626-18.522 6.641z"/><path d="M12.257 20.761c-.279 0-.547-.111-.745-.308a6.282 6.282 0 0 1-1.852-4.471 6.33 6.33 0 0 1 6.322-6.322c1.668 0 3.242.644 4.432 1.813a1.057 1.057 0 0 1 .01 1.494l-7.419 7.483a1.055 1.055 0 0 1-.746.312h-.002zm3.725-8.994a4.22 4.22 0 0 0-3.635 6.352l5.741-5.79a4.188 4.188 0 0 0-2.106-.562zM15.973 25.908c-1.248 0-2.495-.176-3.743-.529-.56-.158-.886-.74-.727-1.301s.739-.887 1.301-.727c5.42 1.531 10.986-.947 16.55-7.37-1.397-1.613-2.803-2.991-4.189-4.103a1.054 1.054 0 1 1 1.32-1.644c1.685 1.352 3.387 3.059 5.061 5.073.325.39.325.957 0 1.347-5.115 6.154-10.338 9.253-15.572 9.253z"/><path d="M15.982 22.305c-.136 0-.27-.005-.404-.013a1.054 1.054 0 0 1 .128-2.103 4.22 4.22 0 0 0 4.481-4.488 1.054 1.054 0 0 1 2.103-.137 6.33 6.33 0 0 1-6.309 6.741z"/></symbol></defs></svg>