<svg aria-hidden="true" style="position: absolute; width: 0; height: 0; overflow: hidden;" version="1.1" xmlns="http://www.w3.org/2000/svg" xmlns:xlink="http://www.w3.org/1999/xlink">
<defs>
<symbol id="icon-logo" viewBox="0 0 126 32">
<path fill="#f6f6f6" style="fill: var(--color1, #f6f6f6)" d="M0 2.286l14.008 13.861 13.42 13.567v-27.429h-27.429z"></path>
<path fill="#f6f6f6" style="fill: var(--color1, #f6f6f6)" d="M3.82 5.91l10.237 10.139 9.649 9.845h-19.886v-19.984z"></path>
<path fill="#4f2ee8" style="fill: var(--color2, #4f2ee8)" d="M23.771 25.959l-10.237-10.139-9.649-9.845h19.886v19.984z"></path>
<path fill="#4f2ee8" style="fill: var(--color2, #4f2ee8)" d="M7.935 10.024l11.657 11.657h-11.657v-11.657z"></path>
<path fill="#f6f6f6" style="fill: var(--color1, #f6f6f6)" d="M7.935 10.024l11.657 11.657v-11.657h-11.657z"></path>
<path fill="#000" style="fill: var(--color3, #000)" d="M47.659 12.266c0-2.366-1.749-3.703-4.773-3.703h-6.315v14.709h6.665c3.045 0 4.999-1.461 4.999-4.299 0-2.201-1.317-3.333-2.859-3.6v-0.041c1.214-0.411 2.283-1.255 2.283-3.065zM39.019 14.653v-4.011h3.929c1.461 0 2.263 0.72 2.263 2.016s-0.658 1.995-2.407 1.995h-3.785zM39.019 16.483h4.299c1.543 0 2.469 0.843 2.469 2.345 0 1.378-0.638 2.366-2.736 2.366h-4.032v-4.711z"></path>
<path fill="#000" style="fill: var(--color3, #000)" d="M54.516 23.581c-3.291 0-5.287-2.283-5.287-5.554s1.995-5.554 5.287-5.554c3.291 0 5.287 2.283 5.287 5.554s-1.995 5.554-5.287 5.554zM54.516 21.811c2.057 0 3.127-1.625 3.127-3.785 0-2.181-1.070-3.785-3.127-3.785s-3.127 1.605-3.127 3.785c0 2.16 1.070 3.785 3.127 3.785z"></path>
<path fill="#000" style="fill: var(--color3, #000)" d="M66.027 23.581c-3.291 0-5.287-2.283-5.287-5.554s1.995-5.554 5.287-5.554c3.291 0 5.287 2.283 5.287 5.554s-1.995 5.554-5.287 5.554zM66.027 21.811c2.057 0 3.127-1.625 3.127-3.785 0-2.181-1.070-3.785-3.127-3.785s-3.127 1.605-3.127 3.785c0 2.16 1.070 3.785 3.127 3.785z"></path>
<path fill="#000" style="fill: var(--color3, #000)" d="M72.807 8.563v14.709h2.16v-3.806l1.461-1.378 3.312 5.184h2.592l-4.423-6.603 3.991-3.909h-2.654l-4.279 4.217v-8.414h-2.16z"></path>
<path fill="#000" style="fill: var(--color3, #000)" d="M87.539 16.915c-1.522-0.35-2.695-0.432-2.695-1.502 0-0.741 0.699-1.234 1.995-1.234 1.687 0 2.098 0.843 2.242 1.666h2.098c-0.144-1.831-1.502-3.374-4.361-3.374-2.633 0-4.155 1.378-4.155 3.106 0 2.386 2.263 2.715 3.929 3.106 1.543 0.37 2.798 0.473 2.798 1.79 0 0.658-0.638 1.399-2.139 1.399-2.222 0-2.715-0.967-2.818-2.098h-2.098c0.103 2.222 1.563 3.806 4.958 3.806 2.551 0 4.279-1.255 4.279-3.271 0-2.51-2.098-2.942-4.032-3.394z"></path>
<path fill="#000" style="fill: var(--color3, #000)" d="M98.633 12.472c-1.769 0-2.859 0.823-3.415 1.646h-0.041v-5.554h-2.16v14.709h2.16v-6.398c0-1.563 1.131-2.571 2.715-2.571 1.502 0 2.098 0.905 2.098 2.325v6.645h2.181v-7.262c0-2.407-1.543-3.538-3.538-3.538z"></path>
<path fill="#000" style="fill: var(--color3, #000)" d="M108.796 21.811c-1.913 0-3.045-1.461-3.045-3.23h8.064c0-3.744-1.666-6.11-5.061-6.11-3.168 0-5.163 2.139-5.163 5.554 0 3.291 1.995 5.554 5.266 5.554 2.695 0 4.258-1.522 4.793-3.518h-2.16c-0.185 0.638-0.905 1.749-2.695 1.749zM108.754 14.179c1.749 0 2.901 1.173 2.901 2.798h-5.904c0-1.625 1.255-2.798 3.003-2.798z"></path>
<path fill="#000" style="fill: var(--color3, #000)" d="M115.337 8.563v14.709h2.181v-14.709h-2.181z"></path>
<path fill="#000" style="fill: var(--color3, #000)" d="M124.573 10.333v-1.769c-0.432-0.082-0.905-0.144-1.44-0.144-1.728 0-2.674 0.782-2.674 3.003v1.337h-1.502v1.769h1.502v8.743h2.181v-8.743h1.934v-1.769h-1.934v-1.152c0-1.193 0.535-1.337 1.934-1.275z"></path>
</symbol>
<symbol id="icon-logo-foot" viewBox="0 0 126 32">
<path fill="#f6f6f6" style="fill: var(--color1, #f6f6f6)" d="M0 2.286l14.008 13.861 13.42 13.567v-27.429h-27.429z"></path>
<path fill="#f6f6f6" style="fill: var(--color1, #f6f6f6)" d="M3.82 5.91l10.237 10.139 9.649 9.845h-19.886v-19.984z"></path>
<path fill="#4f2ee8" style="fill: var(--color2, #4f2ee8)" d="M23.771 25.959l-10.237-10.139-9.649-9.845h19.886v19.984z"></path>
<path fill="#4f2ee8" style="fill: var(--color2, #4f2ee8)" d="M7.935 10.024l11.657 11.657h-11.657v-11.657z"></path>
<path fill="#f6f6f6" style="fill: var(--color1, #f6f6f6)" d="M7.935 10.024l11.657 11.657v-11.657h-11.657z"></path>
<path fill="#f3f3f3" style="fill: var(--color3, #f3f3f3)" d="M47.659 12.266c0-2.366-1.749-3.703-4.773-3.703h-6.315v14.709h6.665c3.045 0 4.999-1.461 4.999-4.299 0-2.201-1.317-3.333-2.859-3.6v-0.041c1.214-0.411 2.283-1.255 2.283-3.065zM39.019 14.653v-4.011h3.929c1.461 0 2.263 0.72 2.263 2.016s-0.658 1.995-2.407 1.995h-3.785zM39.019 16.483h4.299c1.543 0 2.469 0.843 2.469 2.345 0 1.378-0.638 2.366-2.736 2.366h-4.032v-4.711z"></path>
<path fill="#f3f3f3" style="fill: var(--color3, #f3f3f3)" d="M54.516 23.581c-3.291 0-5.287-2.283-5.287-5.554s1.995-5.554 5.287-5.554c3.291 0 5.287 2.283 5.287 5.554s-1.995 5.554-5.287 5.554zM54.516 21.811c2.057 0 3.127-1.625 3.127-3.785 0-2.181-1.070-3.785-3.127-3.785s-3.127 1.605-3.127 3.785c0 2.16 1.070 3.785 3.127 3.785z"></path>
<path fill="#f3f3f3" style="fill: var(--color3, #f3f3f3)" d="M66.027 23.581c-3.291 0-5.287-2.283-5.287-5.554s1.995-5.554 5.287-5.554c3.291 0 5.287 2.283 5.287 5.554s-1.995 5.554-5.287 5.554zM66.027 21.811c2.057 0 3.127-1.625 3.127-3.785 0-2.181-1.070-3.785-3.127-3.785s-3.127 1.605-3.127 3.785c0 2.16 1.070 3.785 3.127 3.785z"></path>
<path fill="#f3f3f3" style="fill: var(--color3, #f3f3f3)" d="M72.807 8.563v14.709h2.16v-3.806l1.461-1.378 3.312 5.184h2.592l-4.423-6.603 3.991-3.909h-2.654l-4.279 4.217v-8.414h-2.16z"></path>
<path fill="#f3f3f3" style="fill: var(--color3, #f3f3f3)" d="M87.539 16.915c-1.522-0.35-2.695-0.432-2.695-1.502 0-0.741 0.699-1.234 1.995-1.234 1.687 0 2.098 0.843 2.242 1.666h2.098c-0.144-1.831-1.502-3.374-4.361-3.374-2.633 0-4.155 1.378-4.155 3.106 0 2.386 2.263 2.715 3.929 3.106 1.543 0.37 2.798 0.473 2.798 1.79 0 0.658-0.638 1.399-2.139 1.399-2.222 0-2.715-0.967-2.818-2.098h-2.098c0.103 2.222 1.563 3.806 4.958 3.806 2.551 0 4.279-1.255 4.279-3.271 0-2.51-2.098-2.942-4.032-3.394z"></path>
<path fill="#f3f3f3" style="fill: var(--color3, #f3f3f3)" d="M98.633 12.472c-1.769 0-2.859 0.823-3.415 1.646h-0.041v-5.554h-2.16v14.709h2.16v-6.398c0-1.563 1.131-2.571 2.715-2.571 1.502 0 2.098 0.905 2.098 2.325v6.645h2.181v-7.262c0-2.407-1.543-3.538-3.538-3.538z"></path>
<path fill="#f3f3f3" style="fill: var(--color3, #f3f3f3)" d="M108.796 21.811c-1.913 0-3.045-1.461-3.045-3.23h8.064c0-3.744-1.666-6.11-5.061-6.11-3.168 0-5.163 2.139-5.163 5.554 0 3.291 1.995 5.554 5.266 5.554 2.695 0 4.258-1.522 4.793-3.518h-2.16c-0.185 0.638-0.905 1.749-2.695 1.749zM108.754 14.179c1.749 0 2.901 1.173 2.901 2.798h-5.904c0-1.625 1.255-2.798 3.003-2.798z"></path>
<path fill="#f3f3f3" style="fill: var(--color3, #f3f3f3)" d="M115.337 8.563v14.709h2.181v-14.709h-2.181z"></path>
<path fill="#f3f3f3" style="fill: var(--color3, #f3f3f3)" d="M124.573 10.333v-1.769c-0.432-0.082-0.905-0.144-1.44-0.144-1.728 0-2.674 0.782-2.674 3.003v1.337h-1.502v1.769h1.502v8.743h2.181v-8.743h1.934v-1.769h-1.934v-1.152c0-1.193 0.535-1.337 1.934-1.275z"></path>
</symbol>
<symbol id="icon-user" viewBox="0 0 32 32">
<path d="M5.333 29.333c0-2.829 1.124-5.542 3.124-7.543s4.713-3.124 7.542-3.124c2.829 0 5.542 1.124 7.542 3.124s3.124 4.714 3.124 7.543h-21.333zM16 17.333c-4.42 0-8-3.58-8-8s3.58-8 8-8c4.42 0 8 3.58 8 8s-3.58 8-8 8z"></path>
</symbol>
<symbol id="icon-align-left" viewBox="0 0 32 32">
<path stroke-linejoin="round" stroke-linecap="round" stroke-miterlimit="4" stroke-width="2.2857" d="M22.667 13.333h-18.667"></path>
<path stroke-linejoin="round" stroke-linecap="round" stroke-miterlimit="4" stroke-width="2.2857" d="M28 8h-24"></path>
<path stroke-linejoin="round" stroke-linecap="round" stroke-miterlimit="4" stroke-width="2.2857" d="M28 18.667h-24"></path>
<path stroke-linejoin="round" stroke-linecap="round" stroke-miterlimit="4" stroke-width="2.2857" d="M22.667 24h-18.667"></path>
</symbol>
<symbol id="icon-arrow-right" viewBox="0 0 32 32">
<path stroke-linejoin="round" stroke-linecap="round" stroke-miterlimit="4" stroke-width="4" d="M2.667 16h26.667M29.333 16l-10-10M29.333 16l-10 10"></path>
</symbol>
<symbol id="icon-book" viewBox="0 0 32 32">
<path d="M31.229 8.466c-0.684-0.358-1.396-0.656-2.138-0.91v17.947c-1.658-0.612-3.36-0.925-5.091-0.925-2.764 0-5.498 0.806-8 2.357v-18.051c-2.356-1.387-5.076-2.208-8-2.208-2.604 0-5.062 0.656-7.229 1.79-0.48 0.239-0.771 0.761-0.771 1.313v18.021c0 0.865 0.684 1.477 1.455 1.477 0.233 0 0.465-0.060 0.698-0.179 1.76-0.94 3.738-1.537 5.847-1.537 3.011 0 5.789 1.223 8 2.984 2.211-1.76 4.989-2.984 8-2.984 2.109 0 4.087 0.597 5.847 1.552 0.233 0.119 0.465 0.179 0.698 0.179 0.756 0 1.455-0.612 1.455-1.477v-18.036c0-0.552-0.291-1.074-0.771-1.313zM13.091 25.503c-1.658-0.612-3.36-0.925-5.091-0.925s-3.433 0.313-5.091 0.925v-14.784c1.615-0.701 3.316-1.059 5.091-1.059 1.745 0 3.476 0.373 5.091 1.074v14.769zM26.182 1.455l-7.273 7.459v14.173l7.273-6.713v-14.918z"></path>
</symbol>
<symbol id="icon-bookshelf" viewBox="0 0 32 32">
<path d="M3.98 14.66c0-0.849-0.628-1.329-1.713-1.329h-2.267v5.28h2.393c1.093 0 1.794-0.524 1.794-1.543 0-0.79-0.473-1.196-1.026-1.292v-0.015c0.436-0.148 0.82-0.45 0.82-1.1zM0.879 15.516v-1.44h1.41c0.524 0 0.812 0.258 0.812 0.724s-0.236 0.716-0.864 0.716h-1.359zM0.879 16.174h1.543c0.554 0 0.886 0.303 0.886 0.842 0 0.495-0.229 0.849-0.982 0.849h-1.447v-1.691z"></path>
<path d="M6.442 18.721c-1.182 0-1.898-0.82-1.898-1.994s0.716-1.994 1.898-1.994c1.182 0 1.898 0.82 1.898 1.994s-0.716 1.994-1.898 1.994zM6.442 18.086c0.738 0 1.122-0.583 1.122-1.359 0-0.783-0.384-1.359-1.122-1.359s-1.122 0.576-1.122 1.359c0 0.775 0.384 1.359 1.122 1.359z"></path>
<path d="M10.574 18.721c-1.182 0-1.898-0.82-1.898-1.994s0.716-1.994 1.898-1.994c1.182 0 1.898 0.82 1.898 1.994s-0.716 1.994-1.898 1.994zM10.574 18.086c0.738 0 1.122-0.583 1.122-1.359 0-0.783-0.384-1.359-1.122-1.359s-1.122 0.576-1.122 1.359c0 0.775 0.384 1.359 1.122 1.359z"></path>
<path d="M13.008 13.33v5.28h0.775v-1.366l0.524-0.495 1.189 1.861h0.93l-1.588-2.37 1.433-1.403h-0.953l-1.536 1.514v-3.020h-0.775z"></path>
<path d="M18.296 16.329c-0.546-0.126-0.967-0.155-0.967-0.539 0-0.266 0.251-0.443 0.716-0.443 0.606 0 0.753 0.303 0.805 0.598h0.753c-0.052-0.657-0.539-1.211-1.566-1.211-0.945 0-1.492 0.495-1.492 1.115 0 0.857 0.812 0.975 1.41 1.115 0.554 0.133 1.004 0.17 1.004 0.642 0 0.236-0.229 0.502-0.768 0.502-0.798 0-0.975-0.347-1.012-0.753h-0.753c0.037 0.798 0.561 1.366 1.78 1.366 0.916 0 1.536-0.45 1.536-1.174 0-0.901-0.753-1.056-1.447-1.218z"></path>
<path d="M22.279 14.734c-0.635 0-1.026 0.295-1.226 0.591h-0.015v-1.994h-0.775v5.28h0.775v-2.297c0-0.561 0.406-0.923 0.975-0.923 0.539 0 0.753 0.325 0.753 0.834v2.385h0.783v-2.607c0-0.864-0.554-1.27-1.27-1.27z"></path>
<path d="M25.927 18.086c-0.687 0-1.093-0.524-1.093-1.159h2.895c0-1.344-0.598-2.193-1.817-2.193-1.137 0-1.854 0.768-1.854 1.994 0 1.182 0.716 1.994 1.89 1.994 0.967 0 1.529-0.546 1.721-1.263h-0.775c-0.066 0.229-0.325 0.628-0.967 0.628zM25.912 15.346c0.628 0 1.041 0.421 1.041 1.004h-2.119c0-0.583 0.45-1.004 1.078-1.004z"></path>
<path d="M28.275 13.33v5.28h0.783v-5.28h-0.783z"></path>
<path d="M31.59 13.966v-0.635c-0.155-0.030-0.325-0.052-0.517-0.052-0.62 0-0.96 0.281-0.96 1.078v0.48h-0.539v0.635h0.539v3.138h0.783v-3.138h0.694v-0.635h-0.694v-0.414c0-0.428 0.192-0.48 0.694-0.458z"></path>
</symbol>
<symbol id="icon-gerb" viewBox="0 0 20 32">
<path d="M9.859 0.172c-0.442 0.52-0.771 1.166-0.965 1.895-0.178 0.666-0.171 1.443 0.040 4.383 0.174 2.419 0.201 2.913 0.221 4.033 0.013 0.715 0.007 1.287-0.019 1.634-0.143 1.96-0.675 3.949-1.622 6.068-0.232 0.521-0.901 1.85-0.957 1.903-0.030 0.028-0.186 0.005-0.624-0.093-0.957-0.215-1.346-0.459-1.622-1.016-0.125-0.253-0.128-0.267-0.128-0.627 0-0.352 0.006-0.38 0.114-0.602 0.16-0.328 0.512-0.677 0.841-0.832 0.282-0.134 0.586-0.186 0.879-0.151 0.11 0.013 0.204 0.021 0.208 0.017s-0.17-1.386-0.39-3.070c-0.219-1.685-0.429-3.322-0.466-3.637-0.099-0.84-0.237-1.441-0.499-2.168-0.7-1.951-2.048-3.689-3.759-4.846-0.254-0.172-1.044-0.63-1.086-0.63-0.014 0-0.025 5.198-0.025 11.55v11.55h5.587l0.076 0.325c0.345 1.471 1.076 2.836 2.101 3.925 0.369 0.392 0.66 0.654 1.169 1.050 0.473 0.367 0.789 0.688 0.938 0.953 0.056 0.099 0.112 0.18 0.124 0.179s0.089-0.108 0.172-0.237c0.178-0.28 0.48-0.572 0.867-0.842 0.449-0.314 0.756-0.572 1.14-0.961 1.041-1.053 1.811-2.477 2.169-4.011l0.077-0.331 5.58-0.017v-23.134l-0.17 0.087c-2.585 1.309-4.539 4.065-5.129 7.231-0.077 0.418-0.941 7.022-0.92 7.042 0.007 0.007 0.104 0 0.214-0.017 0.829-0.125 1.702 0.521 1.847 1.368 0.114 0.666-0.349 1.397-1.055 1.665-0.093 0.036-0.425 0.122-0.737 0.193-0.525 0.119-0.57 0.124-0.61 0.072-0.081-0.106-0.904-1.792-1.101-2.257-0.634-1.492-1.085-2.997-1.304-4.345-0.143-0.88-0.179-1.379-0.178-2.438 0.002-1.14 0.028-1.663 0.193-3.816 0.166-2.184 0.192-2.665 0.196-3.684 0.003-0.769-0.006-0.962-0.056-1.2-0.084-0.392-0.261-0.91-0.418-1.223-0.143-0.284-0.47-0.781-0.65-0.988l-0.111-0.129-0.152 0.179zM2.117 6.283c0.76 1.012 1.269 2.13 1.517 3.335 0.059 0.286 0.733 5.62 0.733 5.801 0 0.045-0.085 0.121-0.273 0.245-0.638 0.422-1.225 1.148-1.396 1.728l-0.042 0.141h-0.956v-11.743l0.071 0.063c0.039 0.035 0.194 0.229 0.346 0.43zM18.333 11.684v5.884l-0.938-0.018-0.093-0.24c-0.255-0.655-0.727-1.225-1.363-1.646-0.211-0.139-0.272-0.197-0.272-0.257 0-0.13 0.665-5.505 0.718-5.807 0.196-1.108 0.728-2.276 1.493-3.282 0.202-0.265 0.418-0.518 0.443-0.518 0.007 0 0.012 2.648 0.012 5.884zM10.499 17.933c0.201 0.492 0.705 1.527 1.028 2.11 0.15 0.271 0.273 0.498 0.273 0.504 0 0.007-0.069 0.029-0.154 0.051-0.406 0.102-0.93 0.424-1.361 0.837l-0.268 0.257-0.25-0.233c-0.444-0.413-0.916-0.711-1.342-0.844-0.105-0.033-0.192-0.072-0.192-0.087 0-0.014 0.112-0.227 0.248-0.472 0.593-1.070 1.059-2.1 1.405-3.101l0.125-0.362 0.172 0.495c0.095 0.272 0.237 0.653 0.316 0.845zM2.667 19.208c0.001 0.023 0.050 0.162 0.109 0.309 0.334 0.823 1.106 1.543 1.991 1.857 0.1 0.036 0.36 0.107 0.576 0.158s0.398 0.099 0.405 0.106c0.006 0.006-0.024 0.177-0.066 0.379-0.114 0.537-0.181 1.031-0.205 1.501l-0.021 0.415h-3.756v-4.766h0.483c0.364 0 0.484 0.010 0.484 0.041zM18.333 21.55v2.383h-3.756l-0.022-0.405c-0.024-0.445-0.121-1.154-0.219-1.595-0.034-0.156-0.059-0.287-0.054-0.293 0.005-0.005 0.21-0.059 0.455-0.12 0.558-0.138 0.886-0.274 1.269-0.526 0.615-0.404 1.147-1.079 1.329-1.686l0.042-0.141h0.956v2.383zM7.842 22.086c0.705 0.248 1.325 1.054 1.325 1.721v0.126h-2.084l0.022-0.391c0.024-0.434 0.056-0.648 0.181-1.196l0.084-0.37 0.165 0.030c0.091 0.017 0.229 0.053 0.307 0.080zM12.769 22.45c0.096 0.424 0.163 0.923 0.164 1.225v0.258h-2.066v-0.115c0-0.779 0.739-1.628 1.566-1.797l0.217-0.044 0.026 0.086c0.014 0.048 0.056 0.222 0.093 0.387zM9.167 27.252v1.685l-0.17-0.193c-0.462-0.526-0.887-1.171-1.188-1.803-0.173-0.364-0.474-1.198-0.475-1.316-0.001-0.054 0.065-0.058 0.916-0.058h0.917v1.685zM12.7 25.596c0 0.083-0.188 0.659-0.32 0.985-0.309 0.754-0.846 1.614-1.357 2.169l-0.154 0.167-0.002-3.35h0.916c0.512 0 0.917 0.013 0.917 0.029z"></path>
</symbol>
<symbol id="icon-lock" viewBox="0 0 32 32">
<path d="M25.334 9.333h-4v-1.333c0-1.415-0.562-2.771-1.562-3.771s-2.357-1.562-3.771-1.562c-1.415 0-2.771 0.562-3.771 1.562s-1.562 2.357-1.562 3.771v1.333h-4c-0.354 0-0.693 0.14-0.943 0.391s-0.391 0.589-0.391 0.943v14.667c0 1.061 0.421 2.078 1.172 2.828s1.768 1.172 2.828 1.172h13.333c1.061 0 2.078-0.421 2.828-1.172s1.172-1.768 1.172-2.828v-14.667c0-0.354-0.14-0.693-0.391-0.943s-0.589-0.391-0.943-0.391zM13.334 8c0-0.707 0.281-1.386 0.781-1.886s1.178-0.781 1.886-0.781c0.707 0 1.385 0.281 1.886 0.781s0.781 1.178 0.781 1.886v1.333h-5.333v-1.333zM24 25.333c0 0.354-0.14 0.693-0.391 0.943s-0.589 0.391-0.943 0.391h-13.333c-0.354 0-0.693-0.14-0.943-0.391s-0.391-0.589-0.391-0.943v-13.333h2.667v1.333c0 0.354 0.14 0.693 0.391 0.943s0.589 0.391 0.943 0.391c0.354 0 0.693-0.14 0.943-0.391s0.39-0.589 0.39-0.943v-1.333h5.333v1.333c0 0.354 0.14 0.693 0.391 0.943s0.589 0.391 0.943 0.391c0.354 0 0.693-0.14 0.943-0.391s0.391-0.589 0.391-0.943v-1.333h2.667v13.333z"></path>
</symbol>
<symbol id="icon-mail" viewBox="0 0 32 32">
<path stroke-linejoin="round" stroke-linecap="round" stroke-miterlimit="4" stroke-width="2.2857" d="M28.666 24l-8.857-8M12.19 16l-8.857 8M2.667 9.333l10.887 7.621c0.882 0.617 1.322 0.926 1.802 1.045 0.423 0.106 0.866 0.106 1.29 0 0.479-0.12 0.92-0.428 1.802-1.045l10.887-7.621M9.067 26.667h13.867c2.24 0 3.36 0 4.216-0.436 0.753-0.384 1.365-0.995 1.748-1.748 0.436-0.856 0.436-1.976 0.436-4.216v-8.533c0-2.24 0-3.36-0.436-4.216-0.383-0.753-0.995-1.365-1.748-1.748-0.856-0.436-1.976-0.436-4.216-0.436h-13.867c-2.24 0-3.36 0-4.216 0.436-0.753 0.383-1.365 0.995-1.748 1.748-0.436 0.856-0.436 1.976-0.436 4.216v8.533c0 2.24 0 3.36 0.436 4.216 0.384 0.753 0.995 1.365 1.748 1.748 0.856 0.436 1.976 0.436 4.216 0.436z"></path>
</symbol>
<symbol id="icon-trash" viewBox="0 0 32 32">
<path stroke-linejoin="round" stroke-linecap="round" stroke-miterlimit="4" stroke-width="2.9091" d="M12 4h8M4 8h24M25.333 8l-0.935 14.026c-0.14 2.104-0.21 3.157-0.665 3.954-0.4 0.702-1.004 1.267-1.731 1.619-0.826 0.4-1.881 0.4-3.99 0.4h-4.025c-2.109 0-3.163 0-3.99-0.4-0.727-0.353-1.331-0.917-1.731-1.619-0.455-0.798-0.525-1.85-0.665-3.954l-0.935-14.026M13.333 14v6.667M18.667 14v6.667"></path>
</symbol>
<symbol id="icon-arrow-up" viewBox="0 0 56 32">
<path d="M4.852 3.404c-0.236 0.076-0.652 0.296-0.932 0.492-1.48 1.032-1.988 2.92-1.224 4.56 0.284 0.616 0.716 1.060 9.276 9.616 8.472 8.464 9.040 9.008 9.992 9.632 1.864 1.22 3.788 1.788 6.036 1.788 2.636 0 4.896-0.796 6.952-2.46 0.412-0.332 4.656-4.524 9.436-9.316 8.188-8.208 8.704-8.744 8.956-9.316 0.24-0.532 0.272-0.72 0.276-1.5 0-0.844-0.020-0.928-0.352-1.604-0.4-0.808-0.916-1.324-1.736-1.724-0.472-0.232-0.624-0.26-1.504-0.26-1.688 0.004-0.764-0.788-10.968 9.38-10.244 10.212-9.388 9.476-11.060 9.476s-0.816 0.736-11.060-9.476c-10.096-10.060-9.28-9.352-10.828-9.396-0.536-0.016-0.992 0.024-1.26 0.108z"></path>
</symbol>
<symbol id="icon-arrow-down" viewBox="0 0 56 32">
<path d="M4.852 3.404c-0.236 0.076-0.652 0.296-0.932 0.492-1.48 1.032-1.988 2.92-1.224 4.56 0.284 0.616 0.716 1.060 9.276 9.616 8.472 8.464 9.040 9.008 9.992 9.632 1.864 1.22 3.788 1.788 6.036 1.788 2.636 0 4.896-0.796 6.952-2.46 0.412-0.332 4.656-4.524 9.436-9.316 8.188-8.208 8.704-8.744 8.956-9.316 0.24-0.532 0.272-0.72 0.276-1.5 0-0.844-0.020-0.928-0.352-1.604-0.4-0.808-0.916-1.324-1.736-1.724-0.472-0.232-0.624-0.26-1.504-0.26-1.688 0.004-0.764-0.788-10.968 9.38-10.244 10.212-9.388 9.476-11.060 9.476s-0.816 0.736-11.060-9.476c-10.096-10.060-9.28-9.352-10.828-9.396-0.536-0.016-0.992 0.024-1.26 0.108z"></path>
</symbol>
<symbol id="icon-x-close" viewBox="0 0 32 32">
<path stroke-linejoin="round" stroke-linecap="round" stroke-miterlimit="4" stroke-width="3.4286" d="M24 8l-16 16M8 8l16 16"></path>
</symbol>
</defs>
</svg>
