<svg aria-hidden="true" style="position: absolute; width: 0; height: 0; overflow: hidden;" version="1.1" xmlns="http://www.w3.org/2000/svg" xmlns:xlink="http://www.w3.org/1999/xlink">
<defs>
<symbol id="icon-eye" viewBox="0 0 32 32">
<path d="M15.982 25.91c-5.223 0-10.458-3.113-15.563-9.254-0.325-0.391-0.325-0.957 0-1.347 5.104-6.14 10.34-9.254 15.563-9.254s10.458 3.113 15.563 9.254c0.325 0.391 0.325 0.957 0 1.347-5.104 6.14-10.34 9.254-15.563 9.254zM2.611 15.982c4.495 5.19 8.99 7.82 13.371 7.82s8.876-2.63 13.371-7.82c-4.495-5.19-8.99-7.82-13.371-7.82s-8.876 2.63-13.371 7.82z"></path>
<path d="M15.982 21.953c-3.293 0-5.971-2.679-5.971-5.971s2.679-5.971 5.971-5.971 5.971 2.679 5.971 5.971-2.679 5.971-5.971 5.971zM15.982 12.118c-2.13 0-3.864 1.733-3.864 3.864s1.733 3.864 3.864 3.864 3.864-1.733 3.864-3.864-1.733-3.864-3.864-3.864z"></path>
</symbol>
<symbol id="icon-eye-off" viewBox="0 0 32 32">
<path d="M4.794 28.224c-0.27 0-0.54-0.103-0.745-0.309-0.412-0.411-0.412-1.079 0-1.49l22.376-22.376c0.412-0.412 1.078-0.412 1.49 0s0.412 1.079 0 1.49l-22.376 22.376c-0.205 0.206-0.475 0.309-0.745 0.309z"></path>
<path d="M9.061 23.956c-0.177 0-0.355-0.045-0.518-0.136-2.711-1.529-5.444-3.94-8.124-7.164-0.325-0.391-0.325-0.957 0-1.347 7.563-9.099 15.302-11.509 23.002-7.165 0.287 0.162 0.482 0.449 0.526 0.775s-0.066 0.655-0.299 0.888l-13.841 13.841c-0.203 0.203-0.472 0.309-0.745 0.309zM2.611 15.982c2.098 2.422 4.206 4.3 6.284 5.597l12.238-12.238c-6.159-2.808-12.238-0.626-18.522 6.641z"></path>
<path d="M12.257 20.761c-0.279 0-0.547-0.111-0.745-0.308-1.194-1.194-1.852-2.782-1.852-4.471 0-3.486 2.836-6.322 6.322-6.322 1.668 0 3.242 0.644 4.432 1.813 0.2 0.197 0.314 0.464 0.315 0.745s-0.108 0.55-0.305 0.749l-7.419 7.483c-0.197 0.199-0.466 0.311-0.746 0.312-0.001-0-0.001-0-0.002-0zM15.982 11.767c-2.324 0-4.215 1.891-4.215 4.215 0 0.764 0.202 1.497 0.58 2.137l5.741-5.79c-0.634-0.367-1.355-0.562-2.106-0.562z"></path>
<path d="M15.973 25.908c-1.248 0-2.495-0.176-3.743-0.529-0.56-0.158-0.886-0.74-0.727-1.301s0.739-0.887 1.301-0.727c5.42 1.531 10.986-0.947 16.55-7.37-1.397-1.613-2.803-2.991-4.189-4.103-0.454-0.364-0.527-1.027-0.162-1.482s1.028-0.527 1.482-0.162c1.685 1.352 3.387 3.059 5.061 5.073 0.325 0.39 0.325 0.957 0 1.347-5.115 6.154-10.338 9.253-15.572 9.253z"></path>
<path d="M15.982 22.305c-0.136 0-0.27-0.005-0.404-0.013-0.581-0.035-1.023-0.535-0.988-1.116 0.036-0.58 0.536-1.022 1.116-0.987 0.091 0.006 0.183 0.009 0.275 0.009 2.324 0 4.215-1.891 4.215-4.215 0-0.095-0.003-0.189-0.009-0.282-0.038-0.581 0.403-1.082 0.983-1.12 0.585-0.036 1.083 0.403 1.12 0.983 0.009 0.138 0.013 0.278 0.013 0.419 0 3.486-2.836 6.322-6.322 6.322z"></path>
</symbol>
</defs>
</svg>
