<svg aria-hidden="true" style="position: absolute; width: 0; height: 0; overflow: hidden;" version="1.1" xmlns="http://www.w3.org/2000/svg" xmlns:xlink="http://www.w3.org/1999/xlink">
<defs>
<symbol id="icon-logo" viewBox="0 0 32 32">
<path fill="#f6f6f6" style="fill: var(--color1, #f6f6f6)" d="M0 0l16.343 16.171 15.657 15.829v-32h-32z"></path>
<path fill="#f6f6f6" style="fill: var(--color1, #f6f6f6)" d="M4.457 4.229l11.943 11.829 11.257 11.486h-23.2v-23.314z"></path>
<path fill="#4f2ee8" style="fill: var(--color2, #4f2ee8)" d="M27.733 27.618l-11.943-11.829-11.257-11.486h23.2v23.314z"></path>
<path fill="#4f2ee8" style="fill: var(--color2, #4f2ee8)" d="M9.257 9.029l13.6 13.6h-13.6v-13.6z"></path>
<path fill="#f6f6f6" style="fill: var(--color1, #f6f6f6)" d="M9.257 9.029l13.6 13.6v-13.6h-13.6z"></path>
</symbol>
<symbol id="icon-user" viewBox="0 0 32 32">
<path d="M5.333 29.333c0-2.829 1.124-5.542 3.124-7.543s4.713-3.124 7.542-3.124c2.829 0 5.542 1.124 7.542 3.124s3.124 4.714 3.124 7.543h-21.333zM16 17.333c-4.42 0-8-3.58-8-8s3.58-8 8-8c4.42 0 8 3.58 8 8s-3.58 8-8 8z"></path>
</symbol>
<symbol id="icon-align-left" viewBox="0 0 32 32">
<path stroke-linejoin="round" stroke-linecap="round" stroke-miterlimit="4" stroke-width="2.2857" d="M22.667 13.333h-18.667"></path>
<path stroke-linejoin="round" stroke-linecap="round" stroke-miterlimit="4" stroke-width="2.2857" d="M28 8h-24"></path>
<path stroke-linejoin="round" stroke-linecap="round" stroke-miterlimit="4" stroke-width="2.2857" d="M28 18.667h-24"></path>
<path stroke-linejoin="round" stroke-linecap="round" stroke-miterlimit="4" stroke-width="2.2857" d="M22.667 24h-18.667"></path>
</symbol>
<symbol id="icon-arrow-right" viewBox="0 0 32 32">
<path stroke-linejoin="round" stroke-linecap="round" stroke-miterlimit="4" stroke-width="4" d="M2.667 16h26.667M29.333 16l-10-10M29.333 16l-10 10"></path>
</symbol>
<symbol id="icon-book" viewBox="0 0 32 32">
<path d="M31.229 8.466c-0.684-0.358-1.396-0.656-2.138-0.91v17.947c-1.658-0.612-3.36-0.925-5.091-0.925-2.764 0-5.498 0.806-8 2.357v-18.051c-2.356-1.387-5.076-2.208-8-2.208-2.604 0-5.062 0.656-7.229 1.79-0.48 0.239-0.771 0.761-0.771 1.313v18.021c0 0.865 0.684 1.477 1.455 1.477 0.233 0 0.465-0.060 0.698-0.179 1.76-0.94 3.738-1.537 5.847-1.537 3.011 0 5.789 1.223 8 2.984 2.211-1.76 4.989-2.984 8-2.984 2.109 0 4.087 0.597 5.847 1.552 0.233 0.119 0.465 0.179 0.698 0.179 0.756 0 1.455-0.612 1.455-1.477v-18.036c0-0.552-0.291-1.074-0.771-1.313zM13.091 25.503c-1.658-0.612-3.36-0.925-5.091-0.925s-3.433 0.313-5.091 0.925v-14.784c1.615-0.701 3.316-1.059 5.091-1.059 1.745 0 3.476 0.373 5.091 1.074v14.769zM26.182 1.455l-7.273 7.459v14.173l7.273-6.713v-14.918z"></path>
</symbol>
<symbol id="icon-bookshelf" viewBox="0 0 32 32">
<path d="M3.98 14.66c0-0.849-0.628-1.329-1.713-1.329h-2.267v5.28h2.393c1.093 0 1.794-0.524 1.794-1.543 0-0.79-0.473-1.196-1.026-1.292v-0.015c0.436-0.148 0.82-0.45 0.82-1.1zM0.879 15.516v-1.44h1.41c0.524 0 0.812 0.258 0.812 0.724s-0.236 0.716-0.864 0.716h-1.359zM0.879 16.174h1.543c0.554 0 0.886 0.303 0.886 0.842 0 0.495-0.229 0.849-0.982 0.849h-1.447v-1.691z"></path>
<path d="M6.442 18.721c-1.182 0-1.898-0.82-1.898-1.994s0.716-1.994 1.898-1.994c1.182 0 1.898 0.82 1.898 1.994s-0.716 1.994-1.898 1.994zM6.442 18.086c0.738 0 1.122-0.583 1.122-1.359 0-0.783-0.384-1.359-1.122-1.359s-1.122 0.576-1.122 1.359c0 0.775 0.384 1.359 1.122 1.359z"></path>
<path d="M10.574 18.721c-1.182 0-1.898-0.82-1.898-1.994s0.716-1.994 1.898-1.994c1.182 0 1.898 0.82 1.898 1.994s-0.716 1.994-1.898 1.994zM10.574 18.086c0.738 0 1.122-0.583 1.122-1.359 0-0.783-0.384-1.359-1.122-1.359s-1.122 0.576-1.122 1.359c0 0.775 0.384 1.359 1.122 1.359z"></path>
<path d="M13.008 13.33v5.28h0.775v-1.366l0.524-0.495 1.189 1.861h0.93l-1.588-2.37 1.433-1.403h-0.953l-1.536 1.514v-3.020h-0.775z"></path>
<path d="M18.296 16.329c-0.546-0.126-0.967-0.155-0.967-0.539 0-0.266 0.251-0.443 0.716-0.443 0.606 0 0.753 0.303 0.805 0.598h0.753c-0.052-0.657-0.539-1.211-1.566-1.211-0.945 0-1.492 0.495-1.492 1.115 0 0.857 0.812 0.975 1.41 1.115 0.554 0.133 1.004 0.17 1.004 0.642 0 0.236-0.229 0.502-0.768 0.502-0.798 0-0.975-0.347-1.012-0.753h-0.753c0.037 0.798 0.561 1.366 1.78 1.366 0.916 0 1.536-0.45 1.536-1.174 0-0.901-0.753-1.056-1.447-1.218z"></path>
<path d="M22.279 14.734c-0.635 0-1.026 0.295-1.226 0.591h-0.015v-1.994h-0.775v5.28h0.775v-2.297c0-0.561 0.406-0.923 0.975-0.923 0.539 0 0.753 0.325 0.753 0.834v2.385h0.783v-2.607c0-0.864-0.554-1.27-1.27-1.27z"></path>
<path d="M25.927 18.086c-0.687 0-1.093-0.524-1.093-1.159h2.895c0-1.344-0.598-2.193-1.817-2.193-1.137 0-1.854 0.768-1.854 1.994 0 1.182 0.716 1.994 1.89 1.994 0.967 0 1.529-0.546 1.721-1.263h-0.775c-0.066 0.229-0.325 0.628-0.967 0.628zM25.912 15.346c0.628 0 1.041 0.421 1.041 1.004h-2.119c0-0.583 0.45-1.004 1.078-1.004z"></path>
<path d="M28.275 13.33v5.28h0.783v-5.28h-0.783z"></path>
<path d="M31.59 13.966v-0.635c-0.155-0.030-0.325-0.052-0.517-0.052-0.62 0-0.96 0.281-0.96 1.078v0.48h-0.539v0.635h0.539v3.138h0.783v-3.138h0.694v-0.635h-0.694v-0.414c0-0.428 0.192-0.48 0.694-0.458z"></path>
</symbol>
<symbol id="icon-gerb" viewBox="0 0 32 32">
<path d="M15.005 30.888c-1.738-1.262-2.991-3.156-3.414-5.351h-5.591v-23.117c2.991 1.443 5.153 4.599 5.388 7.876l0.846 6.493-0.407-0.045c-0.893 0-1.676 0.812-1.676 1.608 0 0.752 0.595 1.383 1.378 1.548l1.018 0.226c1.676-3.051 2.631-6.042 2.631-8.973 0-2.645-0.36-5.291-0.423-7.996 0-1.202 0.486-2.3 1.253-3.156 0.783 0.857 1.253 1.954 1.253 3.156 0 2.705-0.423 5.351-0.423 7.996 0 2.931 0.955 5.922 2.631 8.973l1.018-0.226c0.783-0.165 1.378-0.812 1.378-1.548 0-0.812-0.783-1.608-1.676-1.608l-0.423 0.060 0.846-6.493c0.423-3.277 2.396-6.448 5.388-7.876v23.117h-5.576c-0.423 2.179-1.613 4.148-3.414 5.351-0.423 0.286-0.783 0.631-1.018 1.097-0.219-0.466-0.579-0.812-0.987-1.112zM8.647 17.556c0.235-0.857 0.893-1.608 1.738-2.074l-0.658-5.351c-0.235-1.668-0.955-3.156-2.036-4.374v11.784h0.955v0.015zM11.466 23.929c0-0.812 0.125-1.548 0.298-2.3l-0.783-0.18c-1.143-0.346-2.036-1.203-2.334-2.3h-0.955v4.78h3.774zM15.178 23.929c0-0.977-0.783-1.834-1.801-1.954-0.172 0.631-0.298 1.263-0.298 1.954h2.099zM15.178 25.552h-1.864c0.298 1.263 0.955 2.42 1.864 3.397v-3.397zM17.809 20.547c-0.72-1.262-1.378-2.585-1.801-3.968-0.423 1.383-1.081 2.706-1.801 3.968 0.72 0.165 1.316 0.631 1.801 1.157 0.485-0.526 1.081-0.992 1.801-1.157zM18.952 23.929c0-0.691-0.125-1.323-0.297-1.954-1.018 0.12-1.801 0.977-1.801 1.954h2.099zM18.717 25.552h-1.864v3.397c0.908-0.992 1.566-2.134 1.864-3.397zM24.34 23.929v-4.78h-0.955c-0.298 1.097-1.206 1.954-2.334 2.3l-0.783 0.18c0.172 0.752 0.298 1.488 0.298 2.3h3.774zM24.34 17.556v-11.799c-1.081 1.202-1.864 2.706-2.036 4.374l-0.658 5.351c0.846 0.466 1.504 1.203 1.738 2.074h0.955z"></path>
</symbol>
<symbol id="icon-lock" viewBox="0 0 32 32">
<path stroke-linejoin="round" stroke-linecap="round" stroke-miterlimit="4" stroke-width="2.2857" d="M22.667 14.667v-4c0-3.682-2.985-6.667-6.667-6.667s-6.667 2.985-6.667 6.667v4M10.4 28h11.2c2.24 0 3.36 0 4.216-0.436 0.753-0.383 1.365-0.995 1.748-1.748 0.436-0.856 0.436-1.976 0.436-4.216v-0.533c0-2.24 0-3.36-0.436-4.216-0.383-0.753-0.995-1.365-1.748-1.748-0.856-0.436-1.976-0.436-4.216-0.436h-11.2c-2.24 0-3.36 0-4.216 0.436-0.753 0.384-1.365 0.995-1.748 1.748-0.436 0.856-0.436 1.976-0.436 4.216v0.533c0 2.24 0 3.36 0.436 4.216 0.383 0.753 0.995 1.365 1.748 1.748 0.856 0.436 1.976 0.436 4.216 0.436z"></path>
</symbol>
<symbol id="icon-mail" viewBox="0 0 32 32">
<path stroke-linejoin="round" stroke-linecap="round" stroke-miterlimit="4" stroke-width="2.2857" d="M28.666 24l-8.857-8M12.19 16l-8.857 8M2.667 9.333l10.887 7.621c0.882 0.617 1.322 0.926 1.802 1.045 0.423 0.106 0.866 0.106 1.29 0 0.479-0.12 0.92-0.428 1.802-1.045l10.887-7.621M9.067 26.667h13.867c2.24 0 3.36 0 4.216-0.436 0.753-0.384 1.365-0.995 1.748-1.748 0.436-0.856 0.436-1.976 0.436-4.216v-8.533c0-2.24 0-3.36-0.436-4.216-0.383-0.753-0.995-1.365-1.748-1.748-0.856-0.436-1.976-0.436-4.216-0.436h-13.867c-2.24 0-3.36 0-4.216 0.436-0.753 0.383-1.365 0.995-1.748 1.748-0.436 0.856-0.436 1.976-0.436 4.216v8.533c0 2.24 0 3.36 0.436 4.216 0.384 0.753 0.995 1.365 1.748 1.748 0.856 0.436 1.976 0.436 4.216 0.436z"></path>
</symbol>
<symbol id="icon-trash" viewBox="0 0 32 32">
<path stroke-linejoin="round" stroke-linecap="round" stroke-miterlimit="4" stroke-width="2.9091" d="M12 4h8M4 8h24M25.333 8l-0.935 14.026c-0.14 2.104-0.21 3.157-0.665 3.954-0.4 0.702-1.004 1.267-1.731 1.619-0.826 0.4-1.881 0.4-3.99 0.4h-4.025c-2.109 0-3.163 0-3.99-0.4-0.727-0.353-1.331-0.917-1.731-1.619-0.455-0.798-0.525-1.85-0.665-3.954l-0.935-14.026M13.333 14v6.667M18.667 14v6.667"></path>
</symbol>
<symbol id="icon-arrow-up" viewBox="0 0 32 32">
<path d="M0.631 21.389l14.147-14.189c0.168-0.168 0.351-0.287 0.547-0.357 0.197-0.071 0.407-0.106 0.632-0.106s0.435 0.035 0.632 0.106c0.197 0.070 0.379 0.189 0.547 0.357l14.189 14.189c0.393 0.393 0.589 0.884 0.589 1.474s-0.211 1.095-0.632 1.516c-0.421 0.421-0.912 0.632-1.474 0.632s-1.053-0.211-1.474-0.632l-12.379-12.379-12.379 12.379c-0.393 0.393-0.877 0.589-1.452 0.589-0.576 0-1.075-0.211-1.496-0.632s-0.632-0.912-0.632-1.474c0-0.561 0.211-1.053 0.632-1.474z"></path>
</symbol>
<symbol id="icon-arrow-down" viewBox="0 0 32 32">
<path d="M1.69 9.067h28.622l-12.866 14.544c-0.383 0.433-0.903 0.677-1.445 0.677s-1.062-0.243-1.445-0.677l-12.866-14.544z"></path>
</symbol>
<symbol id="icon-x-close" viewBox="0 0 32 32">
<path stroke-linejoin="round" stroke-linecap="round" stroke-miterlimit="4" stroke-width="3.4286" d="M24 8l-16 16M8 8l16 16"></path>
</symbol>
</defs>
</svg>
